<?xml version="1.0" standalone="no"?>
<!DOCTYPE svg PUBLIC "-//W3C//DTD SVG 20010904//EN"
 "http://www.w3.org/TR/2001/REC-SVG-20010904/DTD/svg10.dtd">
<svg version="1.0" xmlns="http://www.w3.org/2000/svg"
 width="512.000000pt" height="512.000000pt" viewBox="0 0 512.000000 512.000000"
 preserveAspectRatio="xMidYMid meet">

<g transform="translate(0.000000,512.000000) scale(0.100000,-0.100000)"
fill="#000000" stroke="none">
<path d="M1212 3995 c-206 -46 -321 -104 -502 -251 -193 -156 -329 -350 -364
-517 -16 -77 -12 -124 17 -182 33 -66 72 -92 177 -121 69 -18 280 -24 395 -11
50 6 57 5 41 -5 -226 -151 -460 -413 -586 -658 -166 -325 -159 -562 24 -733
189 -176 543 -199 831 -52 264 134 609 484 781 792 16 29 32 53 35 53 4 0 9
-23 13 -51 22 -167 123 -278 252 -279 136 0 276 108 421 327 34 52 38 55 41
33 7 -50 33 -125 56 -161 49 -73 146 -90 245 -42 68 33 202 165 281 277 l55
78 43 -48 c23 -27 42 -53 42 -60 0 -6 -25 -28 -55 -48 -107 -74 -165 -160
-165 -245 0 -42 4 -53 26 -70 56 -44 147 -19 232 62 76 73 111 167 93 248 -7
29 -6 47 0 55 10 12 188 93 237 108 21 7 22 5 22 -57 0 -168 106 -277 269
-277 103 0 286 72 433 171 113 76 268 200 263 210 -12 18 -34 8 -125 -56 -303
-215 -500 -291 -610 -235 -63 32 -85 73 -85 155 l0 70 70 25 c92 33 128 53
182 103 75 69 106 152 78 210 -21 44 -56 62 -119 61 -113 -3 -245 -109 -312
-251 -37 -79 -39 -81 -84 -91 -26 -6 -90 -30 -144 -52 -53 -23 -103 -40 -110
-37 -8 3 -21 18 -29 34 -78 147 -82 158 -82 218 1 64 13 93 68 152 25 27 34
31 63 26 31 -5 34 -3 34 19 0 14 -7 32 -17 39 -25 21 -104 16 -145 -9 -78 -49
-117 -107 -138 -205 -11 -53 -10 -65 11 -127 l22 -68 -48 -64 c-91 -121 -208
-234 -282 -272 -58 -29 -117 -15 -143 34 -36 68 -29 177 26 417 28 121 33 157
24 173 -24 45 -93 42 -125 -6 -22 -34 -53 -164 -61 -259 -7 -88 -22 -120 -119
-250 -108 -146 -191 -218 -282 -245 -34 -11 -48 -10 -75 1 -87 36 -130 140
-132 320 l-1 106 59 89 c192 289 444 744 485 879 12 37 21 89 21 117 0 41 -5
54 -29 79 -53 53 -155 34 -227 -43 -91 -96 -256 -411 -323 -614 -46 -138 -74
-272 -91 -424 -13 -114 -20 -132 -108 -269 -296 -460 -673 -772 -1009 -837
-94 -18 -152 -18 -231 1 -167 40 -272 150 -303 318 -58 314 320 916 714 1137
67 37 73 65 22 89 -26 12 -64 13 -265 3 -251 -13 -347 -7 -399 24 -78 46 -82
154 -11 295 65 129 150 234 286 353 235 206 436 295 642 284 229 -12 323 -177
278 -486 -31 -211 -89 -380 -149 -433 -32 -28 -38 -40 -32 -58 8 -28 46 -46
78 -37 64 16 144 226 192 506 48 279 -22 461 -204 531 -72 28 -264 36 -359 14z
m1472 -398 c7 -19 6 -42 -2 -75 -30 -114 -243 -507 -449 -829 -52 -81 -52 -78
-12 97 47 202 113 386 205 578 58 120 85 164 128 208 47 49 58 55 87 52 26 -2
36 -9 43 -31z m1632 -832 c14 -57 -49 -135 -149 -185 -108 -54 -113 -39 -29
88 40 61 114 122 148 122 17 0 25 -7 30 -25z m-750 -469 c8 -48 -10 -97 -61
-160 -63 -77 -133 -107 -155 -66 -16 30 4 89 47 139 44 51 129 121 148 121 8
0 17 -15 21 -34z"/>
<path d="M2913 3108 c-22 -11 -53 -63 -53 -90 0 -59 100 -82 139 -32 57 73 -5
161 -86 122z"/>
</g>
</svg>
