<?xml version="1.0" standalone="no"?>
<svg xmlns="http://www.w3.org/2000/svg" width="500" height="500"><defs><clipPath id="clip-path-dot-color"><rect x="18" y="146" width="16" height="16" transform="rotate(0,26,154)"/><rect x="18" y="178" width="16" height="16" transform="rotate(0,26,186)"/><rect x="18" y="194" width="16" height="16" transform="rotate(0,26,202)"/><rect x="18" y="210" width="16" height="16" transform="rotate(0,26,218)"/><rect x="18" y="242" width="16" height="16" transform="rotate(0,26,250)"/><rect x="18" y="258" width="16" height="16" transform="rotate(0,26,266)"/><rect x="18" y="274" width="16" height="16" transform="rotate(0,26,282)"/><rect x="18" y="306" width="16" height="16" transform="rotate(0,26,314)"/><rect x="18" y="322" width="16" height="16" transform="rotate(0,26,330)"/><rect x="34" y="146" width="16" height="16" transform="rotate(0,42,154)"/><rect x="34" y="210" width="16" height="16" transform="rotate(0,42,218)"/><rect x="34" y="258" width="16" height="16" transform="rotate(0,42,266)"/><rect x="34" y="306" width="16" height="16" transform="rotate(0,42,314)"/><rect x="34" y="322" width="16" height="16" transform="rotate(0,42,330)"/><rect x="50" y="162" width="16" height="16" transform="rotate(0,58,170)"/><rect x="50" y="178" width="16" height="16" transform="rotate(0,58,186)"/><rect x="50" y="210" width="16" height="16" transform="rotate(0,58,218)"/><rect x="50" y="226" width="16" height="16" transform="rotate(0,58,234)"/><rect x="50" y="274" width="16" height="16" transform="rotate(0,58,282)"/><rect x="50" y="322" width="16" height="16" transform="rotate(0,58,330)"/><rect x="50" y="338" width="16" height="16" transform="rotate(0,58,346)"/><rect x="66" y="178" width="16" height="16" transform="rotate(0,74,186)"/><rect x="66" y="210" width="16" height="16" transform="rotate(0,74,218)"/><rect x="66" y="226" width="16" height="16" transform="rotate(0,74,234)"/><rect x="66" y="274" width="16" height="16" transform="rotate(0,74,282)"/><rect x="66" y="290" width="16" height="16" transform="rotate(0,74,298)"/><rect x="66" y="322" width="16" height="16" transform="rotate(0,74,330)"/><rect x="66" y="338" width="16" height="16" transform="rotate(0,74,346)"/><rect x="82" y="178" width="16" height="16" transform="rotate(0,90,186)"/><rect x="82" y="194" width="16" height="16" transform="rotate(0,90,202)"/><rect x="82" y="210" width="16" height="16" transform="rotate(0,90,218)"/><rect x="82" y="242" width="16" height="16" transform="rotate(0,90,250)"/><rect x="82" y="258" width="16" height="16" transform="rotate(0,90,266)"/><rect x="82" y="274" width="16" height="16" transform="rotate(0,90,282)"/><rect x="82" y="322" width="16" height="16" transform="rotate(0,90,330)"/><rect x="82" y="338" width="16" height="16" transform="rotate(0,90,346)"/><rect x="98" y="162" width="16" height="16" transform="rotate(0,106,170)"/><rect x="98" y="178" width="16" height="16" transform="rotate(0,106,186)"/><rect x="98" y="226" width="16" height="16" transform="rotate(0,106,234)"/><rect x="98" y="242" width="16" height="16" transform="rotate(0,106,250)"/><rect x="98" y="258" width="16" height="16" transform="rotate(0,106,266)"/><rect x="98" y="306" width="16" height="16" transform="rotate(0,106,314)"/><rect x="114" y="146" width="16" height="16" transform="rotate(0,122,154)"/><rect x="114" y="178" width="16" height="16" transform="rotate(0,122,186)"/><rect x="114" y="210" width="16" height="16" transform="rotate(0,122,218)"/><rect x="114" y="242" width="16" height="16" transform="rotate(0,122,250)"/><rect x="114" y="274" width="16" height="16" transform="rotate(0,122,282)"/><rect x="114" y="306" width="16" height="16" transform="rotate(0,122,314)"/><rect x="114" y="338" width="16" height="16" transform="rotate(0,122,346)"/><rect x="130" y="194" width="16" height="16" transform="rotate(0,138,202)"/><rect x="130" y="210" width="16" height="16" transform="rotate(0,138,218)"/><rect x="130" y="242" width="16" height="16" transform="rotate(0,138,250)"/><rect x="130" y="258" width="16" height="16" transform="rotate(0,138,266)"/><rect x="130" y="338" width="16" height="16" transform="rotate(0,138,346)"/><rect x="146" y="34" width="16" height="16" transform="rotate(0,154,42)"/><rect x="146" y="114" width="16" height="16" transform="rotate(0,154,122)"/><rect x="146" y="130" width="16" height="16" transform="rotate(0,154,138)"/><rect x="146" y="146" width="16" height="16" transform="rotate(0,154,154)"/><rect x="146" y="162" width="16" height="16" transform="rotate(0,154,170)"/><rect x="146" y="178" width="16" height="16" transform="rotate(0,154,186)"/><rect x="146" y="194" width="16" height="16" transform="rotate(0,154,202)"/><rect x="146" y="210" width="16" height="16" transform="rotate(0,154,218)"/><rect x="146" y="226" width="16" height="16" transform="rotate(0,154,234)"/><rect x="146" y="258" width="16" height="16" transform="rotate(0,154,266)"/><rect x="146" y="306" width="16" height="16" transform="rotate(0,154,314)"/><rect x="146" y="322" width="16" height="16" transform="rotate(0,154,330)"/><rect x="146" y="354" width="16" height="16" transform="rotate(0,154,362)"/><rect x="146" y="450" width="16" height="16" transform="rotate(0,154,458)"/><rect x="146" y="466" width="16" height="16" transform="rotate(0,154,474)"/><rect x="162" y="98" width="16" height="16" transform="rotate(0,170,106)"/><rect x="162" y="146" width="16" height="16" transform="rotate(0,170,154)"/><rect x="162" y="162" width="16" height="16" transform="rotate(0,170,170)"/><rect x="162" y="194" width="16" height="16" transform="rotate(0,170,202)"/><rect x="162" y="210" width="16" height="16" transform="rotate(0,170,218)"/><rect x="162" y="242" width="16" height="16" transform="rotate(0,170,250)"/><rect x="162" y="338" width="16" height="16" transform="rotate(0,170,346)"/><rect x="162" y="402" width="16" height="16" transform="rotate(0,170,410)"/><rect x="162" y="418" width="16" height="16" transform="rotate(0,170,426)"/><rect x="162" y="450" width="16" height="16" transform="rotate(0,170,458)"/><rect x="178" y="34" width="16" height="16" transform="rotate(0,186,42)"/><rect x="178" y="66" width="16" height="16" transform="rotate(0,186,74)"/><rect x="178" y="82" width="16" height="16" transform="rotate(0,186,90)"/><rect x="178" y="114" width="16" height="16" transform="rotate(0,186,122)"/><rect x="178" y="130" width="16" height="16" transform="rotate(0,186,138)"/><rect x="178" y="178" width="16" height="16" transform="rotate(0,186,186)"/><rect x="178" y="194" width="16" height="16" transform="rotate(0,186,202)"/><rect x="178" y="210" width="16" height="16" transform="rotate(0,186,218)"/><rect x="178" y="258" width="16" height="16" transform="rotate(0,186,266)"/><rect x="178" y="290" width="16" height="16" transform="rotate(0,186,298)"/><rect x="178" y="306" width="16" height="16" transform="rotate(0,186,314)"/><rect x="178" y="338" width="16" height="16" transform="rotate(0,186,346)"/><rect x="178" y="354" width="16" height="16" transform="rotate(0,186,362)"/><rect x="178" y="370" width="16" height="16" transform="rotate(0,186,378)"/><rect x="178" y="386" width="16" height="16" transform="rotate(0,186,394)"/><rect x="178" y="418" width="16" height="16" transform="rotate(0,186,426)"/><rect x="194" y="50" width="16" height="16" transform="rotate(0,202,58)"/><rect x="194" y="98" width="16" height="16" transform="rotate(0,202,106)"/><rect x="194" y="146" width="16" height="16" transform="rotate(0,202,154)"/><rect x="194" y="162" width="16" height="16" transform="rotate(0,202,170)"/><rect x="194" y="178" width="16" height="16" transform="rotate(0,202,186)"/><rect x="194" y="194" width="16" height="16" transform="rotate(0,202,202)"/><rect x="194" y="210" width="16" height="16" transform="rotate(0,202,218)"/><rect x="194" y="226" width="16" height="16" transform="rotate(0,202,234)"/><rect x="194" y="242" width="16" height="16" transform="rotate(0,202,250)"/><rect x="194" y="258" width="16" height="16" transform="rotate(0,202,266)"/><rect x="194" y="274" width="16" height="16" transform="rotate(0,202,282)"/><rect x="194" y="322" width="16" height="16" transform="rotate(0,202,330)"/><rect x="194" y="338" width="16" height="16" transform="rotate(0,202,346)"/><rect x="194" y="370" width="16" height="16" transform="rotate(0,202,378)"/><rect x="194" y="418" width="16" height="16" transform="rotate(0,202,426)"/><rect x="210" y="34" width="16" height="16" transform="rotate(0,218,42)"/><rect x="210" y="50" width="16" height="16" transform="rotate(0,218,58)"/><rect x="210" y="66" width="16" height="16" transform="rotate(0,218,74)"/><rect x="210" y="114" width="16" height="16" transform="rotate(0,218,122)"/><rect x="210" y="146" width="16" height="16" transform="rotate(0,218,154)"/><rect x="210" y="162" width="16" height="16" transform="rotate(0,218,170)"/><rect x="210" y="178" width="16" height="16" transform="rotate(0,218,186)"/><rect x="210" y="226" width="16" height="16" transform="rotate(0,218,234)"/><rect x="210" y="338" width="16" height="16" transform="rotate(0,218,346)"/><rect x="210" y="354" width="16" height="16" transform="rotate(0,218,362)"/><rect x="210" y="370" width="16" height="16" transform="rotate(0,218,378)"/><rect x="210" y="418" width="16" height="16" transform="rotate(0,218,426)"/><rect x="210" y="450" width="16" height="16" transform="rotate(0,218,458)"/><rect x="226" y="18" width="16" height="16" transform="rotate(0,234,26)"/><rect x="226" y="50" width="16" height="16" transform="rotate(0,234,58)"/><rect x="226" y="66" width="16" height="16" transform="rotate(0,234,74)"/><rect x="226" y="82" width="16" height="16" transform="rotate(0,234,90)"/><rect x="226" y="98" width="16" height="16" transform="rotate(0,234,106)"/><rect x="226" y="130" width="16" height="16" transform="rotate(0,234,138)"/><rect x="226" y="146" width="16" height="16" transform="rotate(0,234,154)"/><rect x="226" y="178" width="16" height="16" transform="rotate(0,234,186)"/><rect x="226" y="194" width="16" height="16" transform="rotate(0,234,202)"/><rect x="226" y="210" width="16" height="16" transform="rotate(0,234,218)"/><rect x="226" y="290" width="16" height="16" transform="rotate(0,234,298)"/><rect x="226" y="306" width="16" height="16" transform="rotate(0,234,314)"/><rect x="226" y="322" width="16" height="16" transform="rotate(0,234,330)"/><rect x="226" y="338" width="16" height="16" transform="rotate(0,234,346)"/><rect x="226" y="370" width="16" height="16" transform="rotate(0,234,378)"/><rect x="226" y="402" width="16" height="16" transform="rotate(0,234,410)"/><rect x="226" y="418" width="16" height="16" transform="rotate(0,234,426)"/><rect x="226" y="466" width="16" height="16" transform="rotate(0,234,474)"/><rect x="242" y="18" width="16" height="16" transform="rotate(0,250,26)"/><rect x="242" y="50" width="16" height="16" transform="rotate(0,250,58)"/><rect x="242" y="66" width="16" height="16" transform="rotate(0,250,74)"/><rect x="242" y="114" width="16" height="16" transform="rotate(0,250,122)"/><rect x="242" y="130" width="16" height="16" transform="rotate(0,250,138)"/><rect x="242" y="162" width="16" height="16" transform="rotate(0,250,170)"/><rect x="242" y="178" width="16" height="16" transform="rotate(0,250,186)"/><rect x="242" y="258" width="16" height="16" transform="rotate(0,250,266)"/><rect x="242" y="290" width="16" height="16" transform="rotate(0,250,298)"/><rect x="242" y="338" width="16" height="16" transform="rotate(0,250,346)"/><rect x="242" y="370" width="16" height="16" transform="rotate(0,250,378)"/><rect x="242" y="386" width="16" height="16" transform="rotate(0,250,394)"/><rect x="258" y="34" width="16" height="16" transform="rotate(0,266,42)"/><rect x="258" y="66" width="16" height="16" transform="rotate(0,266,74)"/><rect x="258" y="82" width="16" height="16" transform="rotate(0,266,90)"/><rect x="258" y="146" width="16" height="16" transform="rotate(0,266,154)"/><rect x="258" y="162" width="16" height="16" transform="rotate(0,266,170)"/><rect x="258" y="178" width="16" height="16" transform="rotate(0,266,186)"/><rect x="258" y="210" width="16" height="16" transform="rotate(0,266,218)"/><rect x="258" y="258" width="16" height="16" transform="rotate(0,266,266)"/><rect x="258" y="274" width="16" height="16" transform="rotate(0,266,282)"/><rect x="258" y="290" width="16" height="16" transform="rotate(0,266,298)"/><rect x="258" y="306" width="16" height="16" transform="rotate(0,266,314)"/><rect x="258" y="402" width="16" height="16" transform="rotate(0,266,410)"/><rect x="258" y="418" width="16" height="16" transform="rotate(0,266,426)"/><rect x="258" y="434" width="16" height="16" transform="rotate(0,266,442)"/><rect x="258" y="450" width="16" height="16" transform="rotate(0,266,458)"/><rect x="258" y="466" width="16" height="16" transform="rotate(0,266,474)"/><rect x="274" y="18" width="16" height="16" transform="rotate(0,282,26)"/><rect x="274" y="98" width="16" height="16" transform="rotate(0,282,106)"/><rect x="274" y="114" width="16" height="16" transform="rotate(0,282,122)"/><rect x="274" y="130" width="16" height="16" transform="rotate(0,282,138)"/><rect x="274" y="178" width="16" height="16" transform="rotate(0,282,186)"/><rect x="274" y="194" width="16" height="16" transform="rotate(0,282,202)"/><rect x="274" y="226" width="16" height="16" transform="rotate(0,282,234)"/><rect x="274" y="274" width="16" height="16" transform="rotate(0,282,282)"/><rect x="274" y="418" width="16" height="16" transform="rotate(0,282,426)"/><rect x="274" y="434" width="16" height="16" transform="rotate(0,282,442)"/><rect x="274" y="450" width="16" height="16" transform="rotate(0,282,458)"/><rect x="290" y="18" width="16" height="16" transform="rotate(0,298,26)"/><rect x="290" y="34" width="16" height="16" transform="rotate(0,298,42)"/><rect x="290" y="82" width="16" height="16" transform="rotate(0,298,90)"/><rect x="290" y="98" width="16" height="16" transform="rotate(0,298,106)"/><rect x="290" y="146" width="16" height="16" transform="rotate(0,298,154)"/><rect x="290" y="162" width="16" height="16" transform="rotate(0,298,170)"/><rect x="290" y="194" width="16" height="16" transform="rotate(0,298,202)"/><rect x="290" y="210" width="16" height="16" transform="rotate(0,298,218)"/><rect x="290" y="226" width="16" height="16" transform="rotate(0,298,234)"/><rect x="290" y="306" width="16" height="16" transform="rotate(0,298,314)"/><rect x="290" y="322" width="16" height="16" transform="rotate(0,298,330)"/><rect x="290" y="370" width="16" height="16" transform="rotate(0,298,378)"/><rect x="290" y="386" width="16" height="16" transform="rotate(0,298,394)"/><rect x="290" y="402" width="16" height="16" transform="rotate(0,298,410)"/><rect x="290" y="466" width="16" height="16" transform="rotate(0,298,474)"/><rect x="306" y="18" width="16" height="16" transform="rotate(0,314,26)"/><rect x="306" y="34" width="16" height="16" transform="rotate(0,314,42)"/><rect x="306" y="50" width="16" height="16" transform="rotate(0,314,58)"/><rect x="306" y="98" width="16" height="16" transform="rotate(0,314,106)"/><rect x="306" y="114" width="16" height="16" transform="rotate(0,314,122)"/><rect x="306" y="130" width="16" height="16" transform="rotate(0,314,138)"/><rect x="306" y="178" width="16" height="16" transform="rotate(0,314,186)"/><rect x="306" y="194" width="16" height="16" transform="rotate(0,314,202)"/><rect x="306" y="210" width="16" height="16" transform="rotate(0,314,218)"/><rect x="306" y="226" width="16" height="16" transform="rotate(0,314,234)"/><rect x="306" y="242" width="16" height="16" transform="rotate(0,314,250)"/><rect x="306" y="258" width="16" height="16" transform="rotate(0,314,266)"/><rect x="306" y="290" width="16" height="16" transform="rotate(0,314,298)"/><rect x="306" y="322" width="16" height="16" transform="rotate(0,314,330)"/><rect x="306" y="418" width="16" height="16" transform="rotate(0,314,426)"/><rect x="306" y="466" width="16" height="16" transform="rotate(0,314,474)"/><rect x="322" y="18" width="16" height="16" transform="rotate(0,330,26)"/><rect x="322" y="50" width="16" height="16" transform="rotate(0,330,58)"/><rect x="322" y="82" width="16" height="16" transform="rotate(0,330,90)"/><rect x="322" y="146" width="16" height="16" transform="rotate(0,330,154)"/><rect x="322" y="178" width="16" height="16" transform="rotate(0,330,186)"/><rect x="322" y="194" width="16" height="16" transform="rotate(0,330,202)"/><rect x="322" y="210" width="16" height="16" transform="rotate(0,330,218)"/><rect x="322" y="338" width="16" height="16" transform="rotate(0,330,346)"/><rect x="322" y="354" width="16" height="16" transform="rotate(0,330,362)"/><rect x="322" y="370" width="16" height="16" transform="rotate(0,330,378)"/><rect x="322" y="386" width="16" height="16" transform="rotate(0,330,394)"/><rect x="322" y="418" width="16" height="16" transform="rotate(0,330,426)"/><rect x="322" y="466" width="16" height="16" transform="rotate(0,330,474)"/><rect x="338" y="18" width="16" height="16" transform="rotate(0,346,26)"/><rect x="338" y="50" width="16" height="16" transform="rotate(0,346,58)"/><rect x="338" y="114" width="16" height="16" transform="rotate(0,346,122)"/><rect x="338" y="130" width="16" height="16" transform="rotate(0,346,138)"/><rect x="338" y="226" width="16" height="16" transform="rotate(0,346,234)"/><rect x="338" y="258" width="16" height="16" transform="rotate(0,346,266)"/><rect x="338" y="290" width="16" height="16" transform="rotate(0,346,298)"/><rect x="338" y="306" width="16" height="16" transform="rotate(0,346,314)"/><rect x="338" y="338" width="16" height="16" transform="rotate(0,346,346)"/><rect x="338" y="354" width="16" height="16" transform="rotate(0,346,362)"/><rect x="338" y="370" width="16" height="16" transform="rotate(0,346,378)"/><rect x="338" y="386" width="16" height="16" transform="rotate(0,346,394)"/><rect x="338" y="402" width="16" height="16" transform="rotate(0,346,410)"/><rect x="338" y="434" width="16" height="16" transform="rotate(0,346,442)"/><rect x="338" y="450" width="16" height="16" transform="rotate(0,346,458)"/><rect x="338" y="466" width="16" height="16" transform="rotate(0,346,474)"/><rect x="354" y="146" width="16" height="16" transform="rotate(0,362,154)"/><rect x="354" y="194" width="16" height="16" transform="rotate(0,362,202)"/><rect x="354" y="242" width="16" height="16" transform="rotate(0,362,250)"/><rect x="354" y="258" width="16" height="16" transform="rotate(0,362,266)"/><rect x="354" y="306" width="16" height="16" transform="rotate(0,362,314)"/><rect x="354" y="338" width="16" height="16" transform="rotate(0,362,346)"/><rect x="354" y="402" width="16" height="16" transform="rotate(0,362,410)"/><rect x="354" y="418" width="16" height="16" transform="rotate(0,362,426)"/><rect x="354" y="434" width="16" height="16" transform="rotate(0,362,442)"/><rect x="370" y="146" width="16" height="16" transform="rotate(0,378,154)"/><rect x="370" y="178" width="16" height="16" transform="rotate(0,378,186)"/><rect x="370" y="226" width="16" height="16" transform="rotate(0,378,234)"/><rect x="370" y="258" width="16" height="16" transform="rotate(0,378,266)"/><rect x="370" y="306" width="16" height="16" transform="rotate(0,378,314)"/><rect x="370" y="322" width="16" height="16" transform="rotate(0,378,330)"/><rect x="370" y="338" width="16" height="16" transform="rotate(0,378,346)"/><rect x="370" y="370" width="16" height="16" transform="rotate(0,378,378)"/><rect x="370" y="402" width="16" height="16" transform="rotate(0,378,410)"/><rect x="386" y="162" width="16" height="16" transform="rotate(0,394,170)"/><rect x="386" y="178" width="16" height="16" transform="rotate(0,394,186)"/><rect x="386" y="194" width="16" height="16" transform="rotate(0,394,202)"/><rect x="386" y="258" width="16" height="16" transform="rotate(0,394,266)"/><rect x="386" y="322" width="16" height="16" transform="rotate(0,394,330)"/><rect x="386" y="338" width="16" height="16" transform="rotate(0,394,346)"/><rect x="386" y="402" width="16" height="16" transform="rotate(0,394,410)"/><rect x="386" y="418" width="16" height="16" transform="rotate(0,394,426)"/><rect x="402" y="162" width="16" height="16" transform="rotate(0,410,170)"/><rect x="402" y="210" width="16" height="16" transform="rotate(0,410,218)"/><rect x="402" y="226" width="16" height="16" transform="rotate(0,410,234)"/><rect x="402" y="242" width="16" height="16" transform="rotate(0,410,250)"/><rect x="402" y="258" width="16" height="16" transform="rotate(0,410,266)"/><rect x="402" y="274" width="16" height="16" transform="rotate(0,410,282)"/><rect x="402" y="290" width="16" height="16" transform="rotate(0,410,298)"/><rect x="402" y="306" width="16" height="16" transform="rotate(0,410,314)"/><rect x="402" y="322" width="16" height="16" transform="rotate(0,410,330)"/><rect x="402" y="338" width="16" height="16" transform="rotate(0,410,346)"/><rect x="402" y="354" width="16" height="16" transform="rotate(0,410,362)"/><rect x="402" y="370" width="16" height="16" transform="rotate(0,410,378)"/><rect x="402" y="386" width="16" height="16" transform="rotate(0,410,394)"/><rect x="402" y="402" width="16" height="16" transform="rotate(0,410,410)"/><rect x="402" y="450" width="16" height="16" transform="rotate(0,410,458)"/><rect x="418" y="178" width="16" height="16" transform="rotate(0,426,186)"/><rect x="418" y="226" width="16" height="16" transform="rotate(0,426,234)"/><rect x="418" y="274" width="16" height="16" transform="rotate(0,426,282)"/><rect x="418" y="290" width="16" height="16" transform="rotate(0,426,298)"/><rect x="418" y="322" width="16" height="16" transform="rotate(0,426,330)"/><rect x="418" y="338" width="16" height="16" transform="rotate(0,426,346)"/><rect x="418" y="386" width="16" height="16" transform="rotate(0,426,394)"/><rect x="418" y="418" width="16" height="16" transform="rotate(0,426,426)"/><rect x="418" y="434" width="16" height="16" transform="rotate(0,426,442)"/><rect x="418" y="450" width="16" height="16" transform="rotate(0,426,458)"/><rect x="434" y="194" width="16" height="16" transform="rotate(0,442,202)"/><rect x="434" y="226" width="16" height="16" transform="rotate(0,442,234)"/><rect x="434" y="242" width="16" height="16" transform="rotate(0,442,250)"/><rect x="434" y="290" width="16" height="16" transform="rotate(0,442,298)"/><rect x="434" y="322" width="16" height="16" transform="rotate(0,442,330)"/><rect x="434" y="338" width="16" height="16" transform="rotate(0,442,346)"/><rect x="434" y="354" width="16" height="16" transform="rotate(0,442,362)"/><rect x="434" y="370" width="16" height="16" transform="rotate(0,442,378)"/><rect x="434" y="386" width="16" height="16" transform="rotate(0,442,394)"/><rect x="434" y="402" width="16" height="16" transform="rotate(0,442,410)"/><rect x="434" y="450" width="16" height="16" transform="rotate(0,442,458)"/><rect x="450" y="146" width="16" height="16" transform="rotate(0,458,154)"/><rect x="450" y="162" width="16" height="16" transform="rotate(0,458,170)"/><rect x="450" y="178" width="16" height="16" transform="rotate(0,458,186)"/><rect x="450" y="194" width="16" height="16" transform="rotate(0,458,202)"/><rect x="450" y="226" width="16" height="16" transform="rotate(0,458,234)"/><rect x="450" y="258" width="16" height="16" transform="rotate(0,458,266)"/><rect x="450" y="306" width="16" height="16" transform="rotate(0,458,314)"/><rect x="450" y="370" width="16" height="16" transform="rotate(0,458,378)"/><rect x="450" y="402" width="16" height="16" transform="rotate(0,458,410)"/><rect x="450" y="418" width="16" height="16" transform="rotate(0,458,426)"/><rect x="450" y="434" width="16" height="16" transform="rotate(0,458,442)"/><rect x="450" y="466" width="16" height="16" transform="rotate(0,458,474)"/><rect x="466" y="162" width="16" height="16" transform="rotate(0,474,170)"/><rect x="466" y="194" width="16" height="16" transform="rotate(0,474,202)"/><rect x="466" y="210" width="16" height="16" transform="rotate(0,474,218)"/><rect x="466" y="242" width="16" height="16" transform="rotate(0,474,250)"/><rect x="466" y="290" width="16" height="16" transform="rotate(0,474,298)"/><rect x="466" y="322" width="16" height="16" transform="rotate(0,474,330)"/><rect x="466" y="354" width="16" height="16" transform="rotate(0,474,362)"/><rect x="466" y="370" width="16" height="16" transform="rotate(0,474,378)"/><rect x="466" y="402" width="16" height="16" transform="rotate(0,474,410)"/><rect x="466" y="434" width="16" height="16" transform="rotate(0,474,442)"/></clipPath><clipPath id="clip-path-corners-square-color-0-0"><path clip-rule="evenodd" d="M 18 18v 112h 112v -112zM 34 34h 80v 80h -80z" transform="rotate(0,74,74)"/></clipPath><clipPath id="clip-path-corners-dot-color-0-0"><rect x="50" y="50" width="48" height="48" transform="rotate(0,74,74)"/></clipPath><clipPath id="clip-path-corners-square-color-1-0"><path clip-rule="evenodd" d="M 370 18v 112h 112v -112zM 386 34h 80v 80h -80z" transform="rotate(90,426,74)"/></clipPath><clipPath id="clip-path-corners-dot-color-1-0"><rect x="402" y="50" width="48" height="48" transform="rotate(90,426,74)"/></clipPath><clipPath id="clip-path-corners-square-color-0-1"><path clip-rule="evenodd" d="M 18 370v 112h 112v -112zM 34 386h 80v 80h -80z" transform="rotate(-90,74,426)"/></clipPath><clipPath id="clip-path-corners-dot-color-0-1"><rect x="50" y="402" width="48" height="48" transform="rotate(-90,74,426)"/></clipPath></defs><rect x="0" y="0" height="500" width="500" clip-path="url('#clip-path-background-color')" fill="#fff"/><rect x="0" y="0" height="500" width="500" clip-path="url('#clip-path-dot-color')" fill="#000000"/><rect x="18" y="18" height="112" width="112" clip-path="url('#clip-path-corners-square-color-0-0')" fill="#000000"/><rect x="50" y="50" height="48" width="48" clip-path="url('#clip-path-corners-dot-color-0-0')" fill="#000000"/><rect x="370" y="18" height="112" width="112" clip-path="url('#clip-path-corners-square-color-1-0')" fill="#000000"/><rect x="402" y="50" height="48" width="48" clip-path="url('#clip-path-corners-dot-color-1-0')" fill="#000000"/><rect x="18" y="370" height="112" width="112" clip-path="url('#clip-path-corners-square-color-0-1')" fill="#000000"/><rect x="50" y="402" height="48" width="48" clip-path="url('#clip-path-corners-dot-color-0-1')" fill="#000000"/></svg>